<svg xmlns="http://www.w3.org/2000/svg" xmlns:xlink="http://www.w3.org/1999/xlink" xml:space="preserve" version="1.1" style="shape-rendering:geometricPrecision;text-rendering:geometricPrecision;image-rendering:optimizeQuality;" viewBox="0 0 846.66 1058.325" x="0px" y="0px" fill-rule="evenodd" clip-rule="evenodd"><defs><style type="text/css">
   
    .fil0 {fill:aliceblue;fill-rule:nonzero}
   
  </style></defs><g><path class="fil0" d="M166.75 218.2l-39.66 0 0 541.43 -40.47 0 0 -541.43 -4.43 0c-15.94,0 -28.95,13.02 -28.95,28.95l0 491.74c0,31.17 25.58,56.76 56.76,56.76 31.17,0 56.75,-25.58 56.75,-56.76l0 -520.69zm384.01 437.98l187.17 0 0 40.47 -187.17 0 0 -40.47zm0 -75.62l187.17 0 0 40.46 -187.17 0 0 -40.46zm0 -75.63l187.17 0 0 40.47 -187.17 0 0 -40.47zm0 -75.63l187.17 0 0 40.47 -187.17 0 0 -40.47zm0 -75.63l187.17 0 0 40.47 -187.17 0 0 -40.47zm-273.17 72.1l187.17 0 0 40.46 -187.17 0 0 -40.46zm0 -72.1l187.17 0 0 40.47 -187.17 0 0 -40.47zm-7.59 -85.99l483.11 0 0 40.47 -483.11 0 0 -40.47zm0 -75.88l483.11 0 0 40.46 -483.11 0 0 -40.46zm221.74 298.04l0 239.44 -234.38 0 0 -239.44 234.38 0zm-40.47 40.46l-153.44 0 0 158.51 153.44 0 0 -158.51zm-244.05 -420.71l586.2 0 0 -58.58 -586.2 0 0 58.58zm586.2 40.47l-586.2 0c0,196.28 0,392.55 0,588.83 0,21.15 -6.83,40.77 -18.38,56.76l522.66 0c45.01,0 81.92,-36.91 81.92,-81.92l0 -563.67zm-626.67 27.67l0 -167.19 667.14 0 0 703.19c0,67.35 -55.04,122.39 -122.39,122.39l-601.5 0c-53.52,0 -97.23,-43.71 -97.23,-97.23l0 -491.74c0,-38.18 31.26,-69.42 69.42,-69.42l84.56 0z"/></g><text x="0" y="861.66" fill="#000000" font-size="5px" font-weight="bold" font-family="'Helvetica Neue', Helvetica, Arial-Unicode, Arial, Sans-serif">Created by sholeh</text><text x="0" y="866.66" fill="f0f8ff" font-size="5px" font-weight="bold" font-family="'Helvetica Neue', Helvetica, Arial-Unicode, Arial, Sans-serif">from the Noun Project</text></svg>